<mxfile host="app.diagrams.net" agent="Mozilla/5.0 (Windows NT 10.0; Win64; x64) AppleWebKit/537.36 (KHTML, like Gecko) Chrome/131.0.0.0 Safari/537.36" version="24.8.4">
  <diagram name="Page-1" id="5x3QlWRq-N3S-oAhGKyv">
    <mxGraphModel grid="1" page="1" gridSize="10" guides="1" tooltips="1" connect="1" arrows="1" fold="1" pageScale="1" pageWidth="850" pageHeight="1100" math="0" shadow="0">
      <root>
        <mxCell id="0" />
        <mxCell id="1" parent="0" />
        <mxCell id="BXiqwRlGKzKQuI-ZINDh-2" value="" style="shape=mxgraph.cisco.computers_and_peripherals.pc;sketch=0;html=1;pointerEvents=1;dashed=0;fillColor=#036897;strokeColor=#ffffff;strokeWidth=2;verticalLabelPosition=bottom;verticalAlign=top;align=center;outlineConnect=0;" vertex="1" parent="1">
          <mxGeometry x="70" y="400" width="78" height="70" as="geometry" />
        </mxCell>
        <mxCell id="BXiqwRlGKzKQuI-ZINDh-9" value="" style="shape=mxgraph.cisco.computers_and_peripherals.pc;sketch=0;html=1;pointerEvents=1;dashed=0;fillColor=#036897;strokeColor=#ffffff;strokeWidth=2;verticalLabelPosition=bottom;verticalAlign=top;align=center;outlineConnect=0;" vertex="1" parent="1">
          <mxGeometry x="-50" y="400" width="78" height="70" as="geometry" />
        </mxCell>
        <mxCell id="BXiqwRlGKzKQuI-ZINDh-10" value="" style="shape=mxgraph.cisco.computers_and_peripherals.pc;sketch=0;html=1;pointerEvents=1;dashed=0;fillColor=#036897;strokeColor=#ffffff;strokeWidth=2;verticalLabelPosition=bottom;verticalAlign=top;align=center;outlineConnect=0;" vertex="1" parent="1">
          <mxGeometry x="-160" y="400" width="78" height="70" as="geometry" />
        </mxCell>
        <mxCell id="BXiqwRlGKzKQuI-ZINDh-11" value="" style="shape=mxgraph.cisco.computers_and_peripherals.pc;sketch=0;html=1;pointerEvents=1;dashed=0;fillColor=#036897;strokeColor=#ffffff;strokeWidth=2;verticalLabelPosition=bottom;verticalAlign=top;align=center;outlineConnect=0;" vertex="1" parent="1">
          <mxGeometry x="-300" y="400" width="78" height="70" as="geometry" />
        </mxCell>
        <mxCell id="BXiqwRlGKzKQuI-ZINDh-12" value="" style="shape=mxgraph.cisco.computers_and_peripherals.pc;sketch=0;html=1;pointerEvents=1;dashed=0;fillColor=#036897;strokeColor=#ffffff;strokeWidth=2;verticalLabelPosition=bottom;verticalAlign=top;align=center;outlineConnect=0;" vertex="1" parent="1">
          <mxGeometry x="-440" y="400" width="78" height="70" as="geometry" />
        </mxCell>
        <mxCell id="BXiqwRlGKzKQuI-ZINDh-31" style="edgeStyle=orthogonalEdgeStyle;rounded=0;orthogonalLoop=1;jettySize=auto;html=1;exitX=0.5;exitY=0;exitDx=0;exitDy=0;exitPerimeter=0;entryX=0.16;entryY=0.23;entryDx=0;entryDy=0;entryPerimeter=0;" edge="1" parent="1" source="BXiqwRlGKzKQuI-ZINDh-14" target="BXiqwRlGKzKQuI-ZINDh-29">
          <mxGeometry relative="1" as="geometry">
            <Array as="points">
              <mxPoint x="-400" y="70" />
              <mxPoint x="-210" y="70" />
              <mxPoint x="-210" y="102" />
            </Array>
          </mxGeometry>
        </mxCell>
        <mxCell id="BXiqwRlGKzKQuI-ZINDh-14" value="" style="shape=mxgraph.cisco.switches.workgroup_switch;sketch=0;html=1;pointerEvents=1;dashed=0;fillColor=#036897;strokeColor=#ffffff;strokeWidth=2;verticalLabelPosition=bottom;verticalAlign=top;align=center;outlineConnect=0;" vertex="1" parent="1">
          <mxGeometry x="-451" y="300" width="101" height="50" as="geometry" />
        </mxCell>
        <mxCell id="BXiqwRlGKzKQuI-ZINDh-32" style="edgeStyle=orthogonalEdgeStyle;rounded=0;orthogonalLoop=1;jettySize=auto;html=1;exitX=0.5;exitY=0;exitDx=0;exitDy=0;exitPerimeter=0;" edge="1" parent="1" source="BXiqwRlGKzKQuI-ZINDh-15" target="BXiqwRlGKzKQuI-ZINDh-29">
          <mxGeometry relative="1" as="geometry">
            <mxPoint x="-110" y="120" as="targetPoint" />
            <Array as="points">
              <mxPoint x="-260" y="120" />
              <mxPoint x="-160" y="120" />
            </Array>
          </mxGeometry>
        </mxCell>
        <mxCell id="BXiqwRlGKzKQuI-ZINDh-15" value="" style="shape=mxgraph.cisco.switches.workgroup_switch;sketch=0;html=1;pointerEvents=1;dashed=0;fillColor=#036897;strokeColor=#ffffff;strokeWidth=2;verticalLabelPosition=bottom;verticalAlign=top;align=center;outlineConnect=0;" vertex="1" parent="1">
          <mxGeometry x="-311" y="300" width="101" height="50" as="geometry" />
        </mxCell>
        <mxCell id="BXiqwRlGKzKQuI-ZINDh-33" style="edgeStyle=orthogonalEdgeStyle;rounded=0;orthogonalLoop=1;jettySize=auto;html=1;exitX=0.5;exitY=0;exitDx=0;exitDy=0;exitPerimeter=0;" edge="1" parent="1" source="BXiqwRlGKzKQuI-ZINDh-16" target="BXiqwRlGKzKQuI-ZINDh-29">
          <mxGeometry relative="1" as="geometry" />
        </mxCell>
        <mxCell id="BXiqwRlGKzKQuI-ZINDh-16" value="" style="shape=mxgraph.cisco.switches.workgroup_switch;sketch=0;html=1;pointerEvents=1;dashed=0;fillColor=#036897;strokeColor=#ffffff;strokeWidth=2;verticalLabelPosition=bottom;verticalAlign=top;align=center;outlineConnect=0;" vertex="1" parent="1">
          <mxGeometry x="-171" y="290" width="101" height="50" as="geometry" />
        </mxCell>
        <mxCell id="BXiqwRlGKzKQuI-ZINDh-17" value="" style="shape=mxgraph.cisco.switches.workgroup_switch;sketch=0;html=1;pointerEvents=1;dashed=0;fillColor=#036897;strokeColor=#ffffff;strokeWidth=2;verticalLabelPosition=bottom;verticalAlign=top;align=center;outlineConnect=0;" vertex="1" parent="1">
          <mxGeometry x="58.5" y="290" width="101" height="50" as="geometry" />
        </mxCell>
        <mxCell id="BXiqwRlGKzKQuI-ZINDh-18" value="Business Consultants (61)" style="text;html=1;align=center;verticalAlign=middle;whiteSpace=wrap;rounded=0;" vertex="1" parent="1">
          <mxGeometry x="-453" y="480" width="91" height="40" as="geometry" />
        </mxCell>
        <mxCell id="BXiqwRlGKzKQuI-ZINDh-19" value="Client Management (31)" style="text;html=1;align=center;verticalAlign=middle;whiteSpace=wrap;rounded=0;" vertex="1" parent="1">
          <mxGeometry x="-311" y="490" width="91" height="40" as="geometry" />
        </mxCell>
        <mxCell id="BXiqwRlGKzKQuI-ZINDh-20" value="Sales&amp;amp;Marketing (25)" style="text;html=1;align=center;verticalAlign=middle;whiteSpace=wrap;rounded=0;" vertex="1" parent="1">
          <mxGeometry x="-171" y="490" width="91" height="40" as="geometry" />
        </mxCell>
        <mxCell id="BXiqwRlGKzKQuI-ZINDh-21" value="Communications (22)" style="text;html=1;align=center;verticalAlign=middle;whiteSpace=wrap;rounded=0;" vertex="1" parent="1">
          <mxGeometry x="-56" y="490" width="91" height="40" as="geometry" />
        </mxCell>
        <mxCell id="BXiqwRlGKzKQuI-ZINDh-22" value="Security (16)" style="text;html=1;align=center;verticalAlign=middle;whiteSpace=wrap;rounded=0;" vertex="1" parent="1">
          <mxGeometry x="63.5" y="490" width="91" height="40" as="geometry" />
        </mxCell>
        <mxCell id="BXiqwRlGKzKQuI-ZINDh-34" style="edgeStyle=orthogonalEdgeStyle;rounded=0;orthogonalLoop=1;jettySize=auto;html=1;exitX=0.5;exitY=0;exitDx=0;exitDy=0;exitPerimeter=0;entryX=0.98;entryY=0.5;entryDx=0;entryDy=0;entryPerimeter=0;" edge="1" parent="1" source="BXiqwRlGKzKQuI-ZINDh-23" target="BXiqwRlGKzKQuI-ZINDh-29">
          <mxGeometry relative="1" as="geometry">
            <mxPoint x="-60.00000000000023" y="70" as="targetPoint" />
            <Array as="points">
              <mxPoint x="-40" y="290" />
              <mxPoint x="-40" y="140" />
              <mxPoint x="-102" y="140" />
            </Array>
          </mxGeometry>
        </mxCell>
        <mxCell id="BXiqwRlGKzKQuI-ZINDh-23" value="" style="shape=mxgraph.cisco.switches.workgroup_switch;sketch=0;html=1;pointerEvents=1;dashed=0;fillColor=#036897;strokeColor=#ffffff;strokeWidth=2;verticalLabelPosition=bottom;verticalAlign=top;align=center;outlineConnect=0;" vertex="1" parent="1">
          <mxGeometry x="-61" y="290" width="101" height="50" as="geometry" />
        </mxCell>
        <mxCell id="BXiqwRlGKzKQuI-ZINDh-24" value="" style="endArrow=none;html=1;rounded=0;exitX=0.5;exitY=0;exitDx=0;exitDy=0;exitPerimeter=0;entryX=0.5;entryY=0.98;entryDx=0;entryDy=0;entryPerimeter=0;" edge="1" parent="1" source="BXiqwRlGKzKQuI-ZINDh-12" target="BXiqwRlGKzKQuI-ZINDh-14">
          <mxGeometry width="50" height="50" relative="1" as="geometry">
            <mxPoint x="-270" y="370" as="sourcePoint" />
            <mxPoint x="-220" y="320" as="targetPoint" />
          </mxGeometry>
        </mxCell>
        <mxCell id="BXiqwRlGKzKQuI-ZINDh-25" value="" style="endArrow=none;html=1;rounded=0;" edge="1" parent="1" source="BXiqwRlGKzKQuI-ZINDh-11" target="BXiqwRlGKzKQuI-ZINDh-15">
          <mxGeometry width="50" height="50" relative="1" as="geometry">
            <mxPoint x="-310" y="400" as="sourcePoint" />
            <mxPoint x="-260" y="350" as="targetPoint" />
          </mxGeometry>
        </mxCell>
        <mxCell id="BXiqwRlGKzKQuI-ZINDh-26" value="" style="endArrow=none;html=1;rounded=0;entryX=0.5;entryY=0.98;entryDx=0;entryDy=0;entryPerimeter=0;" edge="1" parent="1" source="BXiqwRlGKzKQuI-ZINDh-10" target="BXiqwRlGKzKQuI-ZINDh-16">
          <mxGeometry width="50" height="50" relative="1" as="geometry">
            <mxPoint x="-160" y="390" as="sourcePoint" />
            <mxPoint x="-110" y="340" as="targetPoint" />
          </mxGeometry>
        </mxCell>
        <mxCell id="BXiqwRlGKzKQuI-ZINDh-27" value="" style="endArrow=none;html=1;rounded=0;" edge="1" parent="1" source="BXiqwRlGKzKQuI-ZINDh-9" target="BXiqwRlGKzKQuI-ZINDh-23">
          <mxGeometry width="50" height="50" relative="1" as="geometry">
            <mxPoint y="370" as="sourcePoint" />
            <mxPoint y="340" as="targetPoint" />
          </mxGeometry>
        </mxCell>
        <mxCell id="BXiqwRlGKzKQuI-ZINDh-28" value="" style="endArrow=none;html=1;rounded=0;" edge="1" parent="1" source="BXiqwRlGKzKQuI-ZINDh-2" target="BXiqwRlGKzKQuI-ZINDh-17">
          <mxGeometry width="50" height="50" relative="1" as="geometry">
            <mxPoint x="60" y="400" as="sourcePoint" />
            <mxPoint x="110" y="350" as="targetPoint" />
          </mxGeometry>
        </mxCell>
        <mxCell id="BXiqwRlGKzKQuI-ZINDh-29" value="" style="shape=mxgraph.cisco.switches.workgroup_switch;sketch=0;html=1;pointerEvents=1;dashed=0;fillColor=#036897;strokeColor=#ffffff;strokeWidth=2;verticalLabelPosition=bottom;verticalAlign=top;align=center;outlineConnect=0;" vertex="1" parent="1">
          <mxGeometry x="-200.5" y="90" width="101" height="50" as="geometry" />
        </mxCell>
        <mxCell id="BXiqwRlGKzKQuI-ZINDh-36" value="5718" style="text;html=1;align=center;verticalAlign=middle;whiteSpace=wrap;rounded=0;" vertex="1" parent="1">
          <mxGeometry x="-470" y="260" width="60" height="30" as="geometry" />
        </mxCell>
        <mxCell id="BXiqwRlGKzKQuI-ZINDh-37" value="2716" style="text;html=1;align=center;verticalAlign=middle;whiteSpace=wrap;rounded=0;" vertex="1" parent="1">
          <mxGeometry x="-320" y="250" width="60" height="30" as="geometry" />
        </mxCell>
        <mxCell id="BXiqwRlGKzKQuI-ZINDh-38" value="1901" style="text;html=1;align=center;verticalAlign=middle;whiteSpace=wrap;rounded=0;" vertex="1" parent="1">
          <mxGeometry x="-180" y="240" width="60" height="30" as="geometry" />
        </mxCell>
        <mxCell id="BXiqwRlGKzKQuI-ZINDh-39" value="1611" style="text;html=1;align=center;verticalAlign=middle;whiteSpace=wrap;rounded=0;" vertex="1" parent="1">
          <mxGeometry x="-90" y="230" width="60" height="30" as="geometry" />
        </mxCell>
        <mxCell id="BXiqwRlGKzKQuI-ZINDh-40" value="1215" style="text;html=1;align=center;verticalAlign=middle;whiteSpace=wrap;rounded=0;" vertex="1" parent="1">
          <mxGeometry x="50" y="240" width="60" height="30" as="geometry" />
        </mxCell>
        <mxCell id="BXiqwRlGKzKQuI-ZINDh-69" value="" style="shape=mxgraph.cisco.computers_and_peripherals.pc;sketch=0;html=1;pointerEvents=1;dashed=0;fillColor=#036897;strokeColor=#ffffff;strokeWidth=2;verticalLabelPosition=bottom;verticalAlign=top;align=center;outlineConnect=0;" vertex="1" parent="1">
          <mxGeometry x="900" y="420" width="78" height="70" as="geometry" />
        </mxCell>
        <mxCell id="BXiqwRlGKzKQuI-ZINDh-70" value="" style="shape=mxgraph.cisco.computers_and_peripherals.pc;sketch=0;html=1;pointerEvents=1;dashed=0;fillColor=#036897;strokeColor=#ffffff;strokeWidth=2;verticalLabelPosition=bottom;verticalAlign=top;align=center;outlineConnect=0;" vertex="1" parent="1">
          <mxGeometry x="780" y="420" width="78" height="70" as="geometry" />
        </mxCell>
        <mxCell id="BXiqwRlGKzKQuI-ZINDh-71" value="" style="shape=mxgraph.cisco.computers_and_peripherals.pc;sketch=0;html=1;pointerEvents=1;dashed=0;fillColor=#036897;strokeColor=#ffffff;strokeWidth=2;verticalLabelPosition=bottom;verticalAlign=top;align=center;outlineConnect=0;" vertex="1" parent="1">
          <mxGeometry x="670" y="420" width="78" height="70" as="geometry" />
        </mxCell>
        <mxCell id="BXiqwRlGKzKQuI-ZINDh-72" value="" style="shape=mxgraph.cisco.computers_and_peripherals.pc;sketch=0;html=1;pointerEvents=1;dashed=0;fillColor=#036897;strokeColor=#ffffff;strokeWidth=2;verticalLabelPosition=bottom;verticalAlign=top;align=center;outlineConnect=0;" vertex="1" parent="1">
          <mxGeometry x="530" y="420" width="78" height="70" as="geometry" />
        </mxCell>
        <mxCell id="BXiqwRlGKzKQuI-ZINDh-73" value="" style="shape=mxgraph.cisco.computers_and_peripherals.pc;sketch=0;html=1;pointerEvents=1;dashed=0;fillColor=#036897;strokeColor=#ffffff;strokeWidth=2;verticalLabelPosition=bottom;verticalAlign=top;align=center;outlineConnect=0;" vertex="1" parent="1">
          <mxGeometry x="390" y="420" width="78" height="70" as="geometry" />
        </mxCell>
        <mxCell id="BXiqwRlGKzKQuI-ZINDh-75" value="" style="shape=mxgraph.cisco.switches.workgroup_switch;sketch=0;html=1;pointerEvents=1;dashed=0;fillColor=#036897;strokeColor=#ffffff;strokeWidth=2;verticalLabelPosition=bottom;verticalAlign=top;align=center;outlineConnect=0;" vertex="1" parent="1">
          <mxGeometry x="379" y="320" width="101" height="50" as="geometry" />
        </mxCell>
        <mxCell id="BXiqwRlGKzKQuI-ZINDh-77" value="" style="shape=mxgraph.cisco.switches.workgroup_switch;sketch=0;html=1;pointerEvents=1;dashed=0;fillColor=#036897;strokeColor=#ffffff;strokeWidth=2;verticalLabelPosition=bottom;verticalAlign=top;align=center;outlineConnect=0;" vertex="1" parent="1">
          <mxGeometry x="519" y="320" width="101" height="50" as="geometry" />
        </mxCell>
        <mxCell id="BXiqwRlGKzKQuI-ZINDh-79" value="" style="shape=mxgraph.cisco.switches.workgroup_switch;sketch=0;html=1;pointerEvents=1;dashed=0;fillColor=#036897;strokeColor=#ffffff;strokeWidth=2;verticalLabelPosition=bottom;verticalAlign=top;align=center;outlineConnect=0;" vertex="1" parent="1">
          <mxGeometry x="659" y="310" width="101" height="50" as="geometry" />
        </mxCell>
        <mxCell id="BXiqwRlGKzKQuI-ZINDh-80" value="" style="shape=mxgraph.cisco.switches.workgroup_switch;sketch=0;html=1;pointerEvents=1;dashed=0;fillColor=#036897;strokeColor=#ffffff;strokeWidth=2;verticalLabelPosition=bottom;verticalAlign=top;align=center;outlineConnect=0;" vertex="1" parent="1">
          <mxGeometry x="888.5" y="310" width="101" height="50" as="geometry" />
        </mxCell>
        <mxCell id="BXiqwRlGKzKQuI-ZINDh-81" value="IT&lt;div&gt;(46)&lt;/div&gt;" style="text;html=1;align=center;verticalAlign=middle;whiteSpace=wrap;rounded=0;" vertex="1" parent="1">
          <mxGeometry x="377" y="500" width="91" height="40" as="geometry" />
        </mxCell>
        <mxCell id="BXiqwRlGKzKQuI-ZINDh-82" value="Legal&amp;nbsp;&lt;div&gt;(25)&lt;/div&gt;" style="text;html=1;align=center;verticalAlign=middle;whiteSpace=wrap;rounded=0;" vertex="1" parent="1">
          <mxGeometry x="519" y="510" width="91" height="40" as="geometry" />
        </mxCell>
        <mxCell id="BXiqwRlGKzKQuI-ZINDh-83" value="Finance&lt;div&gt;(28)&lt;/div&gt;" style="text;html=1;align=center;verticalAlign=middle;whiteSpace=wrap;rounded=0;" vertex="1" parent="1">
          <mxGeometry x="659" y="510" width="91" height="40" as="geometry" />
        </mxCell>
        <mxCell id="BXiqwRlGKzKQuI-ZINDh-84" value="HR&lt;div&gt;(25)&lt;/div&gt;" style="text;html=1;align=center;verticalAlign=middle;whiteSpace=wrap;rounded=0;" vertex="1" parent="1">
          <mxGeometry x="774" y="510" width="91" height="40" as="geometry" />
        </mxCell>
        <mxCell id="BXiqwRlGKzKQuI-ZINDh-85" value="Research&amp;amp;Analysis&lt;div&gt;(16)&lt;/div&gt;" style="text;html=1;align=center;verticalAlign=middle;whiteSpace=wrap;rounded=0;" vertex="1" parent="1">
          <mxGeometry x="893.5" y="510" width="91" height="40" as="geometry" />
        </mxCell>
        <mxCell id="BXiqwRlGKzKQuI-ZINDh-87" value="" style="shape=mxgraph.cisco.switches.workgroup_switch;sketch=0;html=1;pointerEvents=1;dashed=0;fillColor=#036897;strokeColor=#ffffff;strokeWidth=2;verticalLabelPosition=bottom;verticalAlign=top;align=center;outlineConnect=0;" vertex="1" parent="1">
          <mxGeometry x="769" y="310" width="101" height="50" as="geometry" />
        </mxCell>
        <mxCell id="BXiqwRlGKzKQuI-ZINDh-88" value="" style="endArrow=none;html=1;rounded=0;exitX=0.5;exitY=0;exitDx=0;exitDy=0;exitPerimeter=0;entryX=0.5;entryY=0.98;entryDx=0;entryDy=0;entryPerimeter=0;" edge="1" parent="1" source="BXiqwRlGKzKQuI-ZINDh-73" target="BXiqwRlGKzKQuI-ZINDh-75">
          <mxGeometry width="50" height="50" relative="1" as="geometry">
            <mxPoint x="560" y="390" as="sourcePoint" />
            <mxPoint x="610" y="340" as="targetPoint" />
          </mxGeometry>
        </mxCell>
        <mxCell id="BXiqwRlGKzKQuI-ZINDh-89" value="" style="endArrow=none;html=1;rounded=0;" edge="1" parent="1" source="BXiqwRlGKzKQuI-ZINDh-72" target="BXiqwRlGKzKQuI-ZINDh-77">
          <mxGeometry width="50" height="50" relative="1" as="geometry">
            <mxPoint x="520" y="420" as="sourcePoint" />
            <mxPoint x="570" y="370" as="targetPoint" />
          </mxGeometry>
        </mxCell>
        <mxCell id="BXiqwRlGKzKQuI-ZINDh-90" value="" style="endArrow=none;html=1;rounded=0;entryX=0.5;entryY=0.98;entryDx=0;entryDy=0;entryPerimeter=0;" edge="1" parent="1" source="BXiqwRlGKzKQuI-ZINDh-71" target="BXiqwRlGKzKQuI-ZINDh-79">
          <mxGeometry width="50" height="50" relative="1" as="geometry">
            <mxPoint x="670" y="410" as="sourcePoint" />
            <mxPoint x="720" y="360" as="targetPoint" />
          </mxGeometry>
        </mxCell>
        <mxCell id="BXiqwRlGKzKQuI-ZINDh-91" value="" style="endArrow=none;html=1;rounded=0;" edge="1" parent="1" source="BXiqwRlGKzKQuI-ZINDh-70" target="BXiqwRlGKzKQuI-ZINDh-87">
          <mxGeometry width="50" height="50" relative="1" as="geometry">
            <mxPoint x="830" y="390" as="sourcePoint" />
            <mxPoint x="830" y="360" as="targetPoint" />
          </mxGeometry>
        </mxCell>
        <mxCell id="BXiqwRlGKzKQuI-ZINDh-92" value="" style="endArrow=none;html=1;rounded=0;" edge="1" parent="1" source="BXiqwRlGKzKQuI-ZINDh-69" target="BXiqwRlGKzKQuI-ZINDh-80">
          <mxGeometry width="50" height="50" relative="1" as="geometry">
            <mxPoint x="890" y="420" as="sourcePoint" />
            <mxPoint x="940" y="370" as="targetPoint" />
          </mxGeometry>
        </mxCell>
        <mxCell id="BXiqwRlGKzKQuI-ZINDh-93" value="" style="shape=mxgraph.cisco.switches.workgroup_switch;sketch=0;html=1;pointerEvents=1;dashed=0;fillColor=#036897;strokeColor=#ffffff;strokeWidth=2;verticalLabelPosition=bottom;verticalAlign=top;align=center;outlineConnect=0;" vertex="1" parent="1">
          <mxGeometry x="774" y="100" width="101" height="50" as="geometry" />
        </mxCell>
        <mxCell id="BXiqwRlGKzKQuI-ZINDh-95" value="&lt;font style=&quot;font-size: 14px;&quot;&gt;3208&lt;/font&gt;" style="text;html=1;align=center;verticalAlign=middle;whiteSpace=wrap;rounded=0;" vertex="1" parent="1">
          <mxGeometry x="360" y="280" width="60" height="30" as="geometry" />
        </mxCell>
        <mxCell id="BXiqwRlGKzKQuI-ZINDh-96" value="&lt;font style=&quot;font-size: 14px;&quot;&gt;2351&lt;/font&gt;" style="text;html=1;align=center;verticalAlign=middle;whiteSpace=wrap;rounded=0;" vertex="1" parent="1">
          <mxGeometry x="510" y="270" width="60" height="30" as="geometry" />
        </mxCell>
        <mxCell id="BXiqwRlGKzKQuI-ZINDh-97" value="2042" style="text;html=1;align=center;verticalAlign=middle;whiteSpace=wrap;rounded=0;" vertex="1" parent="1">
          <mxGeometry x="650" y="260" width="60" height="30" as="geometry" />
        </mxCell>
        <mxCell id="BXiqwRlGKzKQuI-ZINDh-98" value="1901" style="text;html=1;align=center;verticalAlign=middle;whiteSpace=wrap;rounded=0;" vertex="1" parent="1">
          <mxGeometry x="760" y="250" width="60" height="30" as="geometry" />
        </mxCell>
        <mxCell id="BXiqwRlGKzKQuI-ZINDh-99" value="1743" style="text;html=1;align=center;verticalAlign=middle;whiteSpace=wrap;rounded=0;" vertex="1" parent="1">
          <mxGeometry x="880" y="260" width="60" height="30" as="geometry" />
        </mxCell>
        <mxCell id="BXiqwRlGKzKQuI-ZINDh-101" value="" style="shape=mxgraph.cisco.computers_and_peripherals.pc;sketch=0;html=1;pointerEvents=1;dashed=0;fillColor=#036897;strokeColor=#ffffff;strokeWidth=2;verticalLabelPosition=bottom;verticalAlign=top;align=center;outlineConnect=0;" vertex="1" parent="1">
          <mxGeometry x="1150" y="420" width="78" height="70" as="geometry" />
        </mxCell>
        <mxCell id="BXiqwRlGKzKQuI-ZINDh-102" value="" style="shape=mxgraph.cisco.computers_and_peripherals.pc;sketch=0;html=1;pointerEvents=1;dashed=0;fillColor=#036897;strokeColor=#ffffff;strokeWidth=2;verticalLabelPosition=bottom;verticalAlign=top;align=center;outlineConnect=0;" vertex="1" parent="1">
          <mxGeometry x="1030" y="420" width="78" height="70" as="geometry" />
        </mxCell>
        <mxCell id="BXiqwRlGKzKQuI-ZINDh-103" value="" style="shape=mxgraph.cisco.switches.workgroup_switch;sketch=0;html=1;pointerEvents=1;dashed=0;fillColor=#036897;strokeColor=#ffffff;strokeWidth=2;verticalLabelPosition=bottom;verticalAlign=top;align=center;outlineConnect=0;" vertex="1" parent="1">
          <mxGeometry x="1138.5" y="310" width="101" height="50" as="geometry" />
        </mxCell>
        <mxCell id="BXiqwRlGKzKQuI-ZINDh-104" value="Project Management&amp;nbsp;&lt;div&gt;(16)&lt;/div&gt;" style="text;html=1;align=center;verticalAlign=middle;whiteSpace=wrap;rounded=0;" vertex="1" parent="1">
          <mxGeometry x="1024" y="510" width="91" height="40" as="geometry" />
        </mxCell>
        <mxCell id="BXiqwRlGKzKQuI-ZINDh-105" value="Executive&lt;div&gt;(1)&lt;/div&gt;" style="text;html=1;align=center;verticalAlign=middle;whiteSpace=wrap;rounded=0;" vertex="1" parent="1">
          <mxGeometry x="1143.5" y="510" width="91" height="40" as="geometry" />
        </mxCell>
        <mxCell id="BXiqwRlGKzKQuI-ZINDh-106" value="" style="shape=mxgraph.cisco.switches.workgroup_switch;sketch=0;html=1;pointerEvents=1;dashed=0;fillColor=#036897;strokeColor=#ffffff;strokeWidth=2;verticalLabelPosition=bottom;verticalAlign=top;align=center;outlineConnect=0;" vertex="1" parent="1">
          <mxGeometry x="1019" y="310" width="101" height="50" as="geometry" />
        </mxCell>
        <mxCell id="BXiqwRlGKzKQuI-ZINDh-107" value="" style="endArrow=none;html=1;rounded=0;" edge="1" parent="1" source="BXiqwRlGKzKQuI-ZINDh-102" target="BXiqwRlGKzKQuI-ZINDh-106">
          <mxGeometry width="50" height="50" relative="1" as="geometry">
            <mxPoint x="1080" y="390" as="sourcePoint" />
            <mxPoint x="1080" y="360" as="targetPoint" />
          </mxGeometry>
        </mxCell>
        <mxCell id="BXiqwRlGKzKQuI-ZINDh-108" value="" style="endArrow=none;html=1;rounded=0;" edge="1" parent="1" source="BXiqwRlGKzKQuI-ZINDh-101" target="BXiqwRlGKzKQuI-ZINDh-103">
          <mxGeometry width="50" height="50" relative="1" as="geometry">
            <mxPoint x="1140" y="420" as="sourcePoint" />
            <mxPoint x="1190" y="370" as="targetPoint" />
          </mxGeometry>
        </mxCell>
        <mxCell id="BXiqwRlGKzKQuI-ZINDh-109" value="1263" style="text;html=1;align=center;verticalAlign=middle;whiteSpace=wrap;rounded=0;" vertex="1" parent="1">
          <mxGeometry x="1010" y="250" width="60" height="30" as="geometry" />
        </mxCell>
        <mxCell id="BXiqwRlGKzKQuI-ZINDh-110" value="71" style="text;html=1;align=center;verticalAlign=middle;whiteSpace=wrap;rounded=0;" vertex="1" parent="1">
          <mxGeometry x="1130" y="260" width="60" height="30" as="geometry" />
        </mxCell>
        <mxCell id="BXiqwRlGKzKQuI-ZINDh-112" style="edgeStyle=orthogonalEdgeStyle;rounded=0;orthogonalLoop=1;jettySize=auto;html=1;exitX=0.5;exitY=0;exitDx=0;exitDy=0;exitPerimeter=0;entryX=1;entryY=0;entryDx=0;entryDy=0;entryPerimeter=0;" edge="1" parent="1" source="BXiqwRlGKzKQuI-ZINDh-17" target="BXiqwRlGKzKQuI-ZINDh-29">
          <mxGeometry relative="1" as="geometry" />
        </mxCell>
        <mxCell id="BXiqwRlGKzKQuI-ZINDh-113" style="edgeStyle=orthogonalEdgeStyle;rounded=0;orthogonalLoop=1;jettySize=auto;html=1;exitX=0.5;exitY=0;exitDx=0;exitDy=0;exitPerimeter=0;entryX=0;entryY=0.5;entryDx=0;entryDy=0;entryPerimeter=0;" edge="1" parent="1" source="BXiqwRlGKzKQuI-ZINDh-75" target="BXiqwRlGKzKQuI-ZINDh-93">
          <mxGeometry relative="1" as="geometry" />
        </mxCell>
        <mxCell id="BXiqwRlGKzKQuI-ZINDh-114" style="edgeStyle=orthogonalEdgeStyle;rounded=0;orthogonalLoop=1;jettySize=auto;html=1;exitX=0.5;exitY=0;exitDx=0;exitDy=0;exitPerimeter=0;entryX=0;entryY=0.98;entryDx=0;entryDy=0;entryPerimeter=0;" edge="1" parent="1" source="BXiqwRlGKzKQuI-ZINDh-77" target="BXiqwRlGKzKQuI-ZINDh-93">
          <mxGeometry relative="1" as="geometry">
            <Array as="points">
              <mxPoint x="569" y="170" />
              <mxPoint x="774" y="170" />
            </Array>
          </mxGeometry>
        </mxCell>
        <mxCell id="BXiqwRlGKzKQuI-ZINDh-115" style="edgeStyle=orthogonalEdgeStyle;rounded=0;orthogonalLoop=1;jettySize=auto;html=1;exitX=0.5;exitY=0;exitDx=0;exitDy=0;exitPerimeter=0;entryX=0.5;entryY=0.98;entryDx=0;entryDy=0;entryPerimeter=0;" edge="1" parent="1" source="BXiqwRlGKzKQuI-ZINDh-79" target="BXiqwRlGKzKQuI-ZINDh-93">
          <mxGeometry relative="1" as="geometry" />
        </mxCell>
        <mxCell id="BXiqwRlGKzKQuI-ZINDh-116" style="edgeStyle=orthogonalEdgeStyle;rounded=0;orthogonalLoop=1;jettySize=auto;html=1;exitX=0.5;exitY=0;exitDx=0;exitDy=0;exitPerimeter=0;entryX=0.87;entryY=0.74;entryDx=0;entryDy=0;entryPerimeter=0;" edge="1" parent="1" source="BXiqwRlGKzKQuI-ZINDh-87" target="BXiqwRlGKzKQuI-ZINDh-93">
          <mxGeometry relative="1" as="geometry">
            <Array as="points">
              <mxPoint x="819" y="260" />
              <mxPoint x="862" y="260" />
            </Array>
          </mxGeometry>
        </mxCell>
        <mxCell id="BXiqwRlGKzKQuI-ZINDh-117" style="edgeStyle=orthogonalEdgeStyle;rounded=0;orthogonalLoop=1;jettySize=auto;html=1;exitX=0.5;exitY=0;exitDx=0;exitDy=0;exitPerimeter=0;entryX=0.98;entryY=0.5;entryDx=0;entryDy=0;entryPerimeter=0;" edge="1" parent="1" source="BXiqwRlGKzKQuI-ZINDh-80" target="BXiqwRlGKzKQuI-ZINDh-93">
          <mxGeometry relative="1" as="geometry" />
        </mxCell>
        <mxCell id="BXiqwRlGKzKQuI-ZINDh-119" style="edgeStyle=orthogonalEdgeStyle;rounded=0;orthogonalLoop=1;jettySize=auto;html=1;exitX=0.5;exitY=0;exitDx=0;exitDy=0;exitPerimeter=0;entryX=1;entryY=0;entryDx=0;entryDy=0;entryPerimeter=0;" edge="1" parent="1" source="BXiqwRlGKzKQuI-ZINDh-106" target="BXiqwRlGKzKQuI-ZINDh-93">
          <mxGeometry relative="1" as="geometry">
            <Array as="points">
              <mxPoint x="1070" y="125" />
              <mxPoint x="875" y="125" />
            </Array>
          </mxGeometry>
        </mxCell>
        <mxCell id="BXiqwRlGKzKQuI-ZINDh-120" style="edgeStyle=orthogonalEdgeStyle;rounded=0;orthogonalLoop=1;jettySize=auto;html=1;exitX=0.5;exitY=0;exitDx=0;exitDy=0;exitPerimeter=0;entryX=1;entryY=0;entryDx=0;entryDy=0;entryPerimeter=0;" edge="1" parent="1" source="BXiqwRlGKzKQuI-ZINDh-103" target="BXiqwRlGKzKQuI-ZINDh-93">
          <mxGeometry relative="1" as="geometry">
            <Array as="points">
              <mxPoint x="1170" y="310" />
              <mxPoint x="1170" y="100" />
            </Array>
          </mxGeometry>
        </mxCell>
        <mxCell id="BXiqwRlGKzKQuI-ZINDh-124" style="edgeStyle=orthogonalEdgeStyle;rounded=0;orthogonalLoop=1;jettySize=auto;html=1;exitX=0.5;exitY=0;exitDx=0;exitDy=0;exitPerimeter=0;entryX=0;entryY=1;entryDx=0;entryDy=0;entryPerimeter=0;" edge="1" parent="1" source="BXiqwRlGKzKQuI-ZINDh-29" target="BXiqwRlGKzKQuI-ZINDh-128">
          <mxGeometry relative="1" as="geometry">
            <mxPoint x="210" y="-25" as="targetPoint" />
          </mxGeometry>
        </mxCell>
        <mxCell id="BXiqwRlGKzKQuI-ZINDh-125" style="edgeStyle=orthogonalEdgeStyle;rounded=0;orthogonalLoop=1;jettySize=auto;html=1;exitX=0.5;exitY=0;exitDx=0;exitDy=0;exitPerimeter=0;entryX=0.95;entryY=0.94;entryDx=0;entryDy=0;entryPerimeter=0;" edge="1" parent="1" source="BXiqwRlGKzKQuI-ZINDh-93" target="BXiqwRlGKzKQuI-ZINDh-128">
          <mxGeometry relative="1" as="geometry">
            <mxPoint x="308.98" y="-25" as="targetPoint" />
            <Array as="points">
              <mxPoint x="824" y="-25" />
              <mxPoint x="289" y="-25" />
            </Array>
          </mxGeometry>
        </mxCell>
        <mxCell id="BXiqwRlGKzKQuI-ZINDh-126" value="&lt;font style=&quot;font-size: 14px;&quot;&gt;&lt;b&gt;&lt;font style=&quot;&quot;&gt;1257&lt;/font&gt;9&lt;/b&gt;&lt;/font&gt;" style="text;html=1;align=center;verticalAlign=middle;whiteSpace=wrap;rounded=0;" vertex="1" parent="1">
          <mxGeometry x="420" y="-60" width="60" height="30" as="geometry" />
        </mxCell>
        <mxCell id="BXiqwRlGKzKQuI-ZINDh-127" value="&lt;font style=&quot;font-size: 14px;&quot;&gt;&lt;b&gt;12621&lt;/b&gt;&lt;/font&gt;" style="text;html=1;align=center;verticalAlign=middle;whiteSpace=wrap;rounded=0;" vertex="1" parent="1">
          <mxGeometry x="79" y="-20" width="60" height="30" as="geometry" />
        </mxCell>
        <mxCell id="BXiqwRlGKzKQuI-ZINDh-128" value="" style="shape=mxgraph.cisco.switches.layer_3_switch;sketch=0;html=1;pointerEvents=1;dashed=0;fillColor=#036897;strokeColor=#ffffff;strokeWidth=2;verticalLabelPosition=bottom;verticalAlign=top;align=center;outlineConnect=0;" vertex="1" parent="1">
          <mxGeometry x="220" y="-110" width="64" height="64" as="geometry" />
        </mxCell>
      </root>
    </mxGraphModel>
  </diagram>
</mxfile>
